<svg width="66" height="66" viewBox="0 0 66 66" fill="none" xmlns="http://www.w3.org/2000/svg">
<path d="M33 63C49.5685 63 63 49.5685 63 33C63 16.4315 49.5685 3 33 3C16.4315 3 3 16.4315 3 33C3 49.5685 16.4315 63 33 63Z" stroke="#FF3C7D" stroke-width="6" stroke-miterlimit="10"/>
<path d="M38.5015 45.1516C38.5015 47.4318 37.9935 49.1231 36.9774 50.2256C35.9611 51.3282 34.6477 51.8796 33.0372 51.8798C31.4016 51.8798 30.0696 51.3222 29.0412 50.2071C28.0126 49.0919 27.4984 47.4068 27.4985 45.1516V30.089L38.5015 45.1516Z" fill="#FF3C7D" stroke="#FF3C7D" stroke-linecap="round" stroke-linejoin="round"/>
<path d="M46.9491 18.4358H19.051C17.0064 18.4358 15.3489 20.0933 15.3489 22.1379V22.1379C15.3489 24.1825 17.0064 25.84 19.051 25.84H46.9491C48.9937 25.84 50.6512 24.1825 50.6512 22.1379C50.6512 20.0933 48.9937 18.4358 46.9491 18.4358Z" fill="#FF3C7D" stroke="#FF3C7D" stroke-linecap="round" stroke-linejoin="round"/>
</svg>
