<?xml version="1.0" encoding="utf-8"?>
<svg width="16" height="16" viewBox="0 0 24 24" fill="none" xmlns="http://www.w3.org/2000/svg">
  <defs/>
  <path d="M 14.493 16.53 C 14.493 17.563 14.263 18.33 13.803 18.829 C 13.342 19.329 12.747 19.579 12.017 19.579 C 11.276 19.579 10.672 19.326 10.206 18.821 C 9.74 18.315 9.507 17.552 9.507 16.53 L 9.507 9.703 L 14.493 16.53 Z" fill="white"/>
  <path d="M 18.322 4.421 L 5.678 4.421 C 4.751 4.421 4 5.172 4 6.099 C 4 7.026 4.751 7.777 5.678 7.777 L 18.322 7.777 C 19.249 7.777 20 7.026 20 6.099 C 20 5.172 19.249 4.421 18.322 4.421 Z" fill="white"/>
</svg>